# MagicaVoxel @ ephtracy

# material
mtllib Chancho 1.mtl
usemtl palette

# normals
vn -1 0 0
vn 1 0 0
vn 0 0 1
vn 0 0 -1
vn 0 -1 0
vn 0 1 0

# texcoords
vt 0.0292969 0.5
vt 0.0566406 0.5
vt 0.115234 0.5
vt 0.373047 0.5
vt 0.958984 0.5
vt 0.994141 0.5

# verts
v -0.5 4 -0.5
v -0.5 4 -15.5
v -0.5 9 -4.5
v -0.5 9 -8.5
v -0.5 11 -8.5
v -0.5 11 -9.5
v -0.5 14 -0.5
v -0.5 14 -4.5
v -0.5 14 -9.5
v -0.5 14 -15.5
v 0.5 0 -2.5
v 0.5 0 -4.5
v 0.5 0 -11.5
v 0.5 0 -13.5
v 0.5 1 -2.5
v 0.5 1 -4.5
v 0.5 1 -11.5
v 0.5 1 -13.5
v 0.5 3 -2.5
v 0.5 3 -4.5
v 0.5 3 -11.5
v 0.5 3 -13.5
v 0.5 4 -2.5
v 0.5 4 -4.5
v 0.5 4 -11.5
v 0.5 4 -13.5
v 1.5 10 -15.5
v 1.5 10 -16.5
v 1.5 13 -15.5
v 1.5 13 -16.5
v 1.5 14 -12.5
v 1.5 14 -13.5
v 1.5 16 -12.5
v 1.5 16 -13.5
v 2.5 5 -15.5
v 2.5 5 -16.5
v 2.5 5 -17.5
v 2.5 6 -16.5
v 2.5 6 -17.5
v 2.5 7 -16.5
v 2.5 7 -17.5
v 2.5 10 -15.5
v 2.5 10 -16.5
v 2.5 10 -17.5
v 3.5 6 -16.5
v 3.5 6 -17.5
v 3.5 6 -18.5
v 3.5 7 -16.5
v 3.5 7 -17.5
v 3.5 7 -18.5
v 4.5 8 -16.5
v 4.5 8 -17.5
v 4.5 9 1.5
v 4.5 9 0.5
v 4.5 9 -16.5
v 4.5 9 -17.5
v 4.5 11 0.5
v 4.5 11 -0.5
v 4.5 12 1.5
v 4.5 12 -0.5
v 5.5 10 -15.5
v 5.5 10 -16.5
v 5.5 13 -15.5
v 5.5 13 -16.5
v 5.5 14 -12.5
v 5.5 14 -13.5
v 5.5 16 -12.5
v 5.5 16 -13.5
v 6.5 5 -16.5
v 6.5 5 -17.5
v 6.5 6 -16.5
v 6.5 6 -17.5
v 6.5 8 -16.5
v 6.5 8 -17.5
v 6.5 9 -16.5
v 6.5 9 -17.5
v 7.5 0 -2.5
v 7.5 0 -4.5
v 7.5 0 -11.5
v 7.5 0 -13.5
v 7.5 1 -2.5
v 7.5 1 -4.5
v 7.5 1 -11.5
v 7.5 1 -13.5
v 7.5 3 -2.5
v 7.5 3 -4.5
v 7.5 3 -11.5
v 7.5 3 -13.5
v 7.5 4 -2.5
v 7.5 4 -4.5
v 7.5 4 -11.5
v 7.5 4 -13.5
v 2.5 0 -2.5
v 2.5 0 -4.5
v 2.5 0 -11.5
v 2.5 0 -13.5
v 2.5 1 -2.5
v 2.5 1 -4.5
v 2.5 1 -11.5
v 2.5 1 -13.5
v 2.5 3 -2.5
v 2.5 3 -4.5
v 2.5 3 -11.5
v 2.5 3 -13.5
v 2.5 4 -2.5
v 2.5 4 -4.5
v 2.5 4 -11.5
v 2.5 4 -13.5
v 3.5 5 -16.5
v 3.5 5 -17.5
v 3.5 6 -16.5
v 3.5 6 -17.5
v 3.5 8 -16.5
v 3.5 8 -17.5
v 3.5 9 -16.5
v 3.5 9 -17.5
v 4.5 10 -15.5
v 4.5 10 -16.5
v 4.5 13 -15.5
v 4.5 13 -16.5
v 4.5 14 -12.5
v 4.5 14 -13.5
v 4.5 16 -12.5
v 4.5 16 -13.5
v 5.5 8 -16.5
v 5.5 8 -17.5
v 5.5 9 -16.5
v 5.5 9 -17.5
v 5.5 10 1.5
v 5.5 10 0.5
v 5.5 11 0.5
v 5.5 11 -0.5
v 5.5 12 1.5
v 5.5 12 -0.5
v 6.5 6 -16.5
v 6.5 6 -17.5
v 6.5 6 -18.5
v 6.5 7 -16.5
v 6.5 7 -17.5
v 6.5 7 -18.5
v 6.5 9 1.5
v 6.5 9 0.5
v 6.5 10 1.5
v 6.5 10 0.5
v 7.5 5 -15.5
v 7.5 5 -16.5
v 7.5 5 -17.5
v 7.5 6 -16.5
v 7.5 6 -17.5
v 7.5 7 -16.5
v 7.5 7 -17.5
v 7.5 10 -15.5
v 7.5 10 -16.5
v 7.5 10 -17.5
v 8.5 10 -15.5
v 8.5 10 -16.5
v 8.5 13 -15.5
v 8.5 13 -16.5
v 8.5 14 -12.5
v 8.5 14 -13.5
v 8.5 16 -12.5
v 8.5 16 -13.5
v 9.5 0 -2.5
v 9.5 0 -4.5
v 9.5 0 -11.5
v 9.5 0 -13.5
v 9.5 1 -2.5
v 9.5 1 -4.5
v 9.5 1 -11.5
v 9.5 1 -13.5
v 9.5 3 -2.5
v 9.5 3 -4.5
v 9.5 3 -11.5
v 9.5 3 -13.5
v 9.5 4 -2.5
v 9.5 4 -4.5
v 9.5 4 -11.5
v 9.5 4 -13.5
v 10.5 4 -0.5
v 10.5 4 -15.5
v 10.5 9 -4.5
v 10.5 9 -8.5
v 10.5 11 -8.5
v 10.5 11 -9.5
v 10.5 14 -0.5
v 10.5 14 -4.5
v 10.5 14 -9.5
v 10.5 14 -15.5
v 4.5 9 1.5
v 4.5 12 1.5
v 5.5 10 1.5
v 5.5 12 1.5
v 6.5 9 1.5
v 6.5 10 1.5
v -0.5 4 -0.5
v -0.5 14 -0.5
v 4.5 10 -0.5
v 4.5 11 -0.5
v 4.5 12 -0.5
v 5.5 10 -0.5
v 5.5 11 -0.5
v 5.5 12 -0.5
v 10.5 4 -0.5
v 10.5 14 -0.5
v 0.5 0 -2.5
v 0.5 1 -2.5
v 0.5 3 -2.5
v 0.5 4 -2.5
v 2.5 0 -2.5
v 2.5 1 -2.5
v 2.5 3 -2.5
v 2.5 4 -2.5
v 7.5 0 -2.5
v 7.5 1 -2.5
v 7.5 3 -2.5
v 7.5 4 -2.5
v 9.5 0 -2.5
v 9.5 1 -2.5
v 9.5 3 -2.5
v 9.5 4 -2.5
v 0.5 0 -11.5
v 0.5 1 -11.5
v 0.5 3 -11.5
v 0.5 4 -11.5
v 2.5 0 -11.5
v 2.5 1 -11.5
v 2.5 3 -11.5
v 2.5 4 -11.5
v 7.5 0 -11.5
v 7.5 1 -11.5
v 7.5 3 -11.5
v 7.5 4 -11.5
v 9.5 0 -11.5
v 9.5 1 -11.5
v 9.5 3 -11.5
v 9.5 4 -11.5
v 1.5 14 -12.5
v 1.5 16 -12.5
v 2.5 14 -12.5
v 2.5 15 -12.5
v 3.5 14 -12.5
v 3.5 15 -12.5
v 4.5 14 -12.5
v 4.5 16 -12.5
v 5.5 14 -12.5
v 5.5 16 -12.5
v 6.5 14 -12.5
v 6.5 15 -12.5
v 7.5 14 -12.5
v 7.5 15 -12.5
v 8.5 14 -12.5
v 8.5 16 -12.5
v 4.5 9 0.5
v 4.5 11 0.5
v 5.5 10 0.5
v 5.5 11 0.5
v 6.5 9 0.5
v 6.5 10 0.5
v 0.5 0 -4.5
v 0.5 1 -4.5
v 0.5 3 -4.5
v 0.5 4 -4.5
v 2.5 0 -4.5
v 2.5 1 -4.5
v 2.5 3 -4.5
v 2.5 4 -4.5
v 7.5 0 -4.5
v 7.5 1 -4.5
v 7.5 3 -4.5
v 7.5 4 -4.5
v 9.5 0 -4.5
v 9.5 1 -4.5
v 9.5 3 -4.5
v 9.5 4 -4.5
v 0.5 0 -13.5
v 0.5 1 -13.5
v 0.5 3 -13.5
v 0.5 4 -13.5
v 1.5 14 -13.5
v 1.5 16 -13.5
v 2.5 0 -13.5
v 2.5 1 -13.5
v 2.5 3 -13.5
v 2.5 4 -13.5
v 2.5 14 -13.5
v 2.5 15 -13.5
v 3.5 14 -13.5
v 3.5 15 -13.5
v 4.5 14 -13.5
v 4.5 16 -13.5
v 5.5 14 -13.5
v 5.5 16 -13.5
v 6.5 14 -13.5
v 6.5 15 -13.5
v 7.5 0 -13.5
v 7.5 1 -13.5
v 7.5 3 -13.5
v 7.5 4 -13.5
v 7.5 14 -13.5
v 7.5 15 -13.5
v 8.5 14 -13.5
v 8.5 16 -13.5
v 9.5 0 -13.5
v 9.5 1 -13.5
v 9.5 3 -13.5
v 9.5 4 -13.5
v -0.5 4 -15.5
v -0.5 14 -15.5
v 1.5 10 -15.5
v 1.5 13 -15.5
v 2.5 5 -15.5
v 2.5 10 -15.5
v 4.5 10 -15.5
v 4.5 13 -15.5
v 5.5 10 -15.5
v 5.5 13 -15.5
v 7.5 5 -15.5
v 7.5 10 -15.5
v 8.5 10 -15.5
v 8.5 13 -15.5
v 10.5 4 -15.5
v 10.5 14 -15.5
v 1.5 10 -16.5
v 1.5 13 -16.5
v 2.5 6 -16.5
v 2.5 7 -16.5
v 2.5 10 -16.5
v 2.5 11 -16.5
v 2.5 12 -16.5
v 3.5 5 -16.5
v 3.5 6 -16.5
v 3.5 7 -16.5
v 3.5 8 -16.5
v 3.5 9 -16.5
v 3.5 11 -16.5
v 3.5 12 -16.5
v 4.5 8 -16.5
v 4.5 9 -16.5
v 4.5 10 -16.5
v 4.5 13 -16.5
v 5.5 8 -16.5
v 5.5 9 -16.5
v 5.5 10 -16.5
v 5.5 13 -16.5
v 6.5 5 -16.5
v 6.5 6 -16.5
v 6.5 7 -16.5
v 6.5 8 -16.5
v 6.5 9 -16.5
v 6.5 11 -16.5
v 6.5 12 -16.5
v 7.5 6 -16.5
v 7.5 7 -16.5
v 7.5 10 -16.5
v 7.5 11 -16.5
v 7.5 12 -16.5
v 8.5 10 -16.5
v 8.5 13 -16.5
v 2.5 5 -17.5
v 2.5 6 -17.5
v 2.5 7 -17.5
v 2.5 10 -17.5
v 3.5 5 -17.5
v 3.5 6 -17.5
v 3.5 7 -17.5
v 3.5 8 -17.5
v 3.5 9 -17.5
v 4.5 8 -17.5
v 4.5 9 -17.5
v 5.5 8 -17.5
v 5.5 9 -17.5
v 6.5 5 -17.5
v 6.5 6 -17.5
v 6.5 7 -17.5
v 6.5 8 -17.5
v 6.5 9 -17.5
v 7.5 5 -17.5
v 7.5 6 -17.5
v 7.5 7 -17.5
v 7.5 10 -17.5
v 3.5 6 -18.5
v 3.5 7 -18.5
v 6.5 6 -18.5
v 6.5 7 -18.5
v 0.5 0 -2.5
v 2.5 0 -2.5
v 7.5 0 -2.5
v 9.5 0 -2.5
v 0.5 0 -4.5
v 2.5 0 -4.5
v 7.5 0 -4.5
v 9.5 0 -4.5
v 0.5 0 -11.5
v 2.5 0 -11.5
v 7.5 0 -11.5
v 9.5 0 -11.5
v 0.5 0 -13.5
v 2.5 0 -13.5
v 7.5 0 -13.5
v 9.5 0 -13.5
v -0.5 4 -0.5
v 10.5 4 -0.5
v 0.5 4 -2.5
v 2.5 4 -2.5
v 7.5 4 -2.5
v 9.5 4 -2.5
v 0.5 4 -4.5
v 2.5 4 -4.5
v 7.5 4 -4.5
v 9.5 4 -4.5
v 0.5 4 -11.5
v 2.5 4 -11.5
v 7.5 4 -11.5
v 9.5 4 -11.5
v 0.5 4 -13.5
v 2.5 4 -13.5
v 7.5 4 -13.5
v 9.5 4 -13.5
v -0.5 4 -15.5
v 10.5 4 -15.5
v 2.5 5 -15.5
v 7.5 5 -15.5
v 2.5 5 -16.5
v 3.5 5 -16.5
v 6.5 5 -16.5
v 7.5 5 -16.5
v 2.5 5 -17.5
v 3.5 5 -17.5
v 6.5 5 -17.5
v 7.5 5 -17.5
v 3.5 6 -16.5
v 6.5 6 -16.5
v 3.5 6 -17.5
v 6.5 6 -17.5
v 3.5 6 -18.5
v 6.5 6 -18.5
v 2.5 7 -16.5
v 3.5 7 -16.5
v 6.5 7 -16.5
v 7.5 7 -16.5
v 2.5 7 -17.5
v 3.5 7 -17.5
v 6.5 7 -17.5
v 7.5 7 -17.5
v 4.5 9 1.5
v 6.5 9 1.5
v 4.5 9 0.5
v 6.5 9 0.5
v 3.5 9 -16.5
v 4.5 9 -16.5
v 5.5 9 -16.5
v 6.5 9 -16.5
v 3.5 9 -17.5
v 4.5 9 -17.5
v 5.5 9 -17.5
v 6.5 9 -17.5
v 1.5 10 -15.5
v 2.5 10 -15.5
v 7.5 10 -15.5
v 8.5 10 -15.5
v 1.5 10 -16.5
v 2.5 10 -16.5
v 7.5 10 -16.5
v 8.5 10 -16.5
v 4.5 11 0.5
v 5.5 11 0.5
v 4.5 11 -0.5
v 5.5 11 -0.5
v 2.5 6 -16.5
v 3.5 6 -16.5
v 6.5 6 -16.5
v 7.5 6 -16.5
v 2.5 6 -17.5
v 3.5 6 -17.5
v 6.5 6 -17.5
v 7.5 6 -17.5
v 3.5 7 -17.5
v 6.5 7 -17.5
v 3.5 7 -18.5
v 6.5 7 -18.5
v 3.5 8 -16.5
v 4.5 8 -16.5
v 5.5 8 -16.5
v 6.5 8 -16.5
v 3.5 8 -17.5
v 4.5 8 -17.5
v 5.5 8 -17.5
v 6.5 8 -17.5
v 5.5 10 1.5
v 6.5 10 1.5
v 5.5 10 0.5
v 6.5 10 0.5
v 4.5 10 -15.5
v 5.5 10 -15.5
v 2.5 10 -16.5
v 4.5 10 -16.5
v 5.5 10 -16.5
v 7.5 10 -16.5
v 2.5 10 -17.5
v 7.5 10 -17.5
v 4.5 12 1.5
v 5.5 12 1.5
v 4.5 12 -0.5
v 5.5 12 -0.5
v 1.5 13 -15.5
v 4.5 13 -15.5
v 5.5 13 -15.5
v 8.5 13 -15.5
v 1.5 13 -16.5
v 4.5 13 -16.5
v 5.5 13 -16.5
v 8.5 13 -16.5
v -0.5 14 -0.5
v 10.5 14 -0.5
v -0.5 14 -4.5
v 10.5 14 -4.5
v -0.5 14 -9.5
v 10.5 14 -9.5
v 1.5 14 -12.5
v 2.5 14 -12.5
v 3.5 14 -12.5
v 4.5 14 -12.5
v 5.5 14 -12.5
v 6.5 14 -12.5
v 7.5 14 -12.5
v 8.5 14 -12.5
v 1.5 14 -13.5
v 2.5 14 -13.5
v 3.5 14 -13.5
v 4.5 14 -13.5
v 5.5 14 -13.5
v 6.5 14 -13.5
v 7.5 14 -13.5
v 8.5 14 -13.5
v -0.5 14 -15.5
v 10.5 14 -15.5
v 1.5 16 -12.5
v 4.5 16 -12.5
v 5.5 16 -12.5
v 8.5 16 -12.5
v 1.5 16 -13.5
v 4.5 16 -13.5
v 5.5 16 -13.5
v 8.5 16 -13.5

# faces
f 3/1/1 2/1/1 1/1/1
f 4/1/1 2/1/1 3/1/1
f 5/2/1 4/2/1 3/2/1
f 5/1/1 2/1/1 4/1/1
f 6/1/1 2/1/1 5/1/1
f 7/1/1 3/1/1 1/1/1
f 8/2/1 5/2/1 3/2/1
f 8/1/1 3/1/1 7/1/1
f 8/2/1 6/2/1 5/2/1
f 9/1/1 2/1/1 6/1/1
f 9/2/1 6/2/1 8/2/1
f 10/1/1 2/1/1 9/1/1
f 15/4/1 12/4/1 11/4/1
f 16/4/1 12/4/1 15/4/1
f 17/4/1 14/4/1 13/4/1
f 18/4/1 14/4/1 17/4/1
f 19/2/1 16/2/1 15/2/1
f 20/2/1 16/2/1 19/2/1
f 21/2/1 18/2/1 17/2/1
f 22/2/1 18/2/1 21/2/1
f 23/1/1 20/1/1 19/1/1
f 24/1/1 20/1/1 23/1/1
f 25/1/1 22/1/1 21/1/1
f 26/1/1 22/1/1 25/1/1
f 29/5/1 28/5/1 27/5/1
f 30/5/1 28/5/1 29/5/1
f 33/1/1 32/1/1 31/1/1
f 34/1/1 32/1/1 33/1/1
f 38/1/1 36/1/1 35/1/1
f 38/5/1 37/5/1 36/5/1
f 39/5/1 37/5/1 38/5/1
f 40/1/1 38/1/1 35/1/1
f 42/1/1 40/1/1 35/1/1
f 43/2/1 41/2/1 40/2/1
f 43/1/1 40/1/1 42/1/1
f 44/2/1 41/2/1 43/2/1
f 48/3/1 46/3/1 45/3/1
f 48/3/1 47/3/1 46/3/1
f 49/3/1 47/3/1 48/3/1
f 50/3/1 47/3/1 49/3/1
f 55/2/1 52/2/1 51/2/1
f 56/2/1 52/2/1 55/2/1
f 57/1/1 54/1/1 53/1/1
f 59/1/1 57/1/1 53/1/1
f 59/1/1 58/1/1 57/1/1
f 60/1/1 58/1/1 59/1/1
f 63/5/1 62/5/1 61/5/1
f 64/5/1 62/5/1 63/5/1
f 67/1/1 66/1/1 65/1/1
f 68/1/1 66/1/1 67/1/1
f 71/5/1 70/5/1 69/5/1
f 72/5/1 70/5/1 71/5/1
f 75/2/1 74/2/1 73/2/1
f 76/2/1 74/2/1 75/2/1
f 81/4/1 78/4/1 77/4/1
f 82/4/1 78/4/1 81/4/1
f 83/4/1 80/4/1 79/4/1
f 84/4/1 80/4/1 83/4/1
f 85/2/1 82/2/1 81/2/1
f 86/2/1 82/2/1 85/2/1
f 87/2/1 84/2/1 83/2/1
f 88/2/1 84/2/1 87/2/1
f 89/1/1 86/1/1 85/1/1
f 90/1/1 86/1/1 89/1/1
f 91/1/1 88/1/1 87/1/1
f 92/1/1 88/1/1 91/1/1
f 93/4/2 94/4/2 97/4/2
f 97/4/2 94/4/2 98/4/2
f 95/4/2 96/4/2 99/4/2
f 99/4/2 96/4/2 100/4/2
f 97/2/2 98/2/2 101/2/2
f 101/2/2 98/2/2 102/2/2
f 99/2/2 100/2/2 103/2/2
f 103/2/2 100/2/2 104/2/2
f 101/1/2 102/1/2 105/1/2
f 105/1/2 102/1/2 106/1/2
f 103/1/2 104/1/2 107/1/2
f 107/1/2 104/1/2 108/1/2
f 109/5/2 110/5/2 111/5/2
f 111/5/2 110/5/2 112/5/2
f 113/2/2 114/2/2 115/2/2
f 115/2/2 114/2/2 116/2/2
f 117/5/2 118/5/2 119/5/2
f 119/5/2 118/5/2 120/5/2
f 121/1/2 122/1/2 123/1/2
f 123/1/2 122/1/2 124/1/2
f 125/2/2 126/2/2 127/2/2
f 127/2/2 126/2/2 128/2/2
f 129/1/2 130/1/2 131/1/2
f 129/1/2 131/1/2 133/1/2
f 131/1/2 132/1/2 133/1/2
f 133/1/2 132/1/2 134/1/2
f 135/3/2 136/3/2 138/3/2
f 136/3/2 137/3/2 138/3/2
f 138/3/2 137/3/2 139/3/2
f 139/3/2 137/3/2 140/3/2
f 141/1/2 142/1/2 143/1/2
f 143/1/2 142/1/2 144/1/2
f 145/1/2 146/1/2 148/1/2
f 146/5/2 147/5/2 148/5/2
f 148/5/2 147/5/2 149/5/2
f 145/1/2 148/1/2 150/1/2
f 145/1/2 150/1/2 152/1/2
f 150/2/2 151/2/2 153/2/2
f 152/1/2 150/1/2 153/1/2
f 153/2/2 151/2/2 154/2/2
f 155/5/2 156/5/2 157/5/2
f 157/5/2 156/5/2 158/5/2
f 159/1/2 160/1/2 161/1/2
f 161/1/2 160/1/2 162/1/2
f 163/4/2 164/4/2 167/4/2
f 167/4/2 164/4/2 168/4/2
f 165/4/2 166/4/2 169/4/2
f 169/4/2 166/4/2 170/4/2
f 167/2/2 168/2/2 171/2/2
f 171/2/2 168/2/2 172/2/2
f 169/2/2 170/2/2 173/2/2
f 173/2/2 170/2/2 174/2/2
f 171/1/2 172/1/2 175/1/2
f 175/1/2 172/1/2 176/1/2
f 173/1/2 174/1/2 177/1/2
f 177/1/2 174/1/2 178/1/2
f 179/1/2 180/1/2 181/1/2
f 181/1/2 180/1/2 182/1/2
f 181/2/2 182/2/2 183/2/2
f 182/1/2 180/1/2 183/1/2
f 183/1/2 180/1/2 184/1/2
f 179/1/2 181/1/2 185/1/2
f 181/2/2 183/2/2 186/2/2
f 185/1/2 181/1/2 186/1/2
f 183/2/2 184/2/2 186/2/2
f 184/1/2 180/1/2 187/1/2
f 186/2/2 184/2/2 187/2/2
f 187/1/2 180/1/2 188/1/2
f 191/1/3 190/1/3 189/1/3
f 192/1/3 190/1/3 191/1/3
f 193/1/3 191/1/3 189/1/3
f 194/1/3 191/1/3 193/1/3
f 197/1/3 196/1/3 195/1/3
f 198/1/3 196/1/3 197/1/3
f 199/1/3 196/1/3 198/1/3
f 200/1/3 197/1/3 195/1/3
f 200/2/3 198/2/3 197/2/3
f 201/2/3 198/2/3 200/2/3
f 202/1/3 196/1/3 199/1/3
f 203/1/3 201/1/3 200/1/3
f 203/1/3 202/1/3 201/1/3
f 203/1/3 200/1/3 195/1/3
f 204/1/3 196/1/3 202/1/3
f 204/1/3 202/1/3 203/1/3
f 209/4/3 206/4/3 205/4/3
f 210/2/3 207/2/3 206/2/3
f 210/4/3 206/4/3 209/4/3
f 211/1/3 208/1/3 207/1/3
f 211/2/3 207/2/3 210/2/3
f 212/1/3 208/1/3 211/1/3
f 217/4/3 214/4/3 213/4/3
f 218/2/3 215/2/3 214/2/3
f 218/4/3 214/4/3 217/4/3
f 219/1/3 216/1/3 215/1/3
f 219/2/3 215/2/3 218/2/3
f 220/1/3 216/1/3 219/1/3
f 225/4/3 222/4/3 221/4/3
f 226/2/3 223/2/3 222/2/3
f 226/4/3 222/4/3 225/4/3
f 227/1/3 224/1/3 223/1/3
f 227/2/3 223/2/3 226/2/3
f 228/1/3 224/1/3 227/1/3
f 233/4/3 230/4/3 229/4/3
f 234/2/3 231/2/3 230/2/3
f 234/4/3 230/4/3 233/4/3
f 235/1/3 232/1/3 231/1/3
f 235/2/3 231/2/3 234/2/3
f 236/1/3 232/1/3 235/1/3
f 239/1/3 238/1/3 237/1/3
f 240/1/3 238/1/3 239/1/3
f 241/2/3 240/2/3 239/2/3
f 242/1/3 238/1/3 240/1/3
f 242/2/3 240/2/3 241/2/3
f 243/1/3 242/1/3 241/1/3
f 244/1/3 238/1/3 242/1/3
f 244/1/3 242/1/3 243/1/3
f 247/1/3 246/1/3 245/1/3
f 248/1/3 246/1/3 247/1/3
f 249/2/3 248/2/3 247/2/3
f 250/1/3 246/1/3 248/1/3
f 250/2/3 248/2/3 249/2/3
f 251/1/3 250/1/3 249/1/3
f 252/1/3 246/1/3 250/1/3
f 252/1/3 250/1/3 251/1/3
f 253/1/4 254/1/4 255/1/4
f 255/1/4 254/1/4 256/1/4
f 253/1/4 255/1/4 257/1/4
f 257/1/4 255/1/4 258/1/4
f 259/4/4 260/4/4 263/4/4
f 260/2/4 261/2/4 264/2/4
f 263/4/4 260/4/4 264/4/4
f 261/1/4 262/1/4 265/1/4
f 264/2/4 261/2/4 265/2/4
f 265/1/4 262/1/4 266/1/4
f 267/4/4 268/4/4 271/4/4
f 268/2/4 269/2/4 272/2/4
f 271/4/4 268/4/4 272/4/4
f 269/1/4 270/1/4 273/1/4
f 272/2/4 269/2/4 273/2/4
f 273/1/4 270/1/4 274/1/4
f 275/4/4 276/4/4 281/4/4
f 276/2/4 277/2/4 282/2/4
f 281/4/4 276/4/4 282/4/4
f 277/1/4 278/1/4 283/1/4
f 282/2/4 277/2/4 283/2/4
f 283/1/4 278/1/4 284/1/4
f 279/1/4 280/1/4 285/1/4
f 285/1/4 280/1/4 286/1/4
f 285/2/4 286/2/4 287/2/4
f 286/1/4 280/1/4 288/1/4
f 287/2/4 286/2/4 288/2/4
f 287/1/4 288/1/4 289/1/4
f 288/1/4 280/1/4 290/1/4
f 289/1/4 288/1/4 290/1/4
f 291/1/4 292/1/4 293/1/4
f 293/1/4 292/1/4 294/1/4
f 293/2/4 294/2/4 299/2/4
f 294/1/4 292/1/4 300/1/4
f 299/2/4 294/2/4 300/2/4
f 299/1/4 300/1/4 301/1/4
f 300/1/4 292/1/4 302/1/4
f 301/1/4 300/1/4 302/1/4
f 295/4/4 296/4/4 303/4/4
f 296/2/4 297/2/4 304/2/4
f 303/4/4 296/4/4 304/4/4
f 297/1/4 298/1/4 305/1/4
f 304/2/4 297/2/4 305/2/4
f 305/1/4 298/1/4 306/1/4
f 307/1/4 308/1/4 309/1/4
f 309/1/4 308/1/4 310/1/4
f 307/1/4 309/1/4 311/1/4
f 311/1/4 309/1/4 312/1/4
f 310/1/4 308/1/4 314/1/4
f 313/1/4 314/1/4 315/1/4
f 314/1/4 308/1/4 316/1/4
f 315/1/4 314/1/4 316/1/4
f 307/1/4 311/1/4 317/1/4
f 317/1/4 318/1/4 319/1/4
f 316/1/4 308/1/4 320/1/4
f 317/1/4 319/1/4 321/1/4
f 319/1/4 320/1/4 321/1/4
f 307/1/4 317/1/4 321/1/4
f 320/1/4 308/1/4 322/1/4
f 321/1/4 320/1/4 322/1/4
f 323/5/4 324/5/4 327/5/4
f 327/5/4 324/5/4 328/5/4
f 328/5/4 324/5/4 329/5/4
f 325/1/4 326/1/4 331/1/4
f 331/1/4 326/1/4 332/1/4
f 327/5/4 328/5/4 335/5/4
f 328/6/4 329/6/4 335/6/4
f 329/5/4 324/5/4 336/5/4
f 335/6/4 329/6/4 336/6/4
f 333/1/4 334/1/4 337/1/4
f 337/1/4 334/1/4 338/1/4
f 327/5/4 335/5/4 339/5/4
f 335/5/4 336/5/4 339/5/4
f 336/5/4 324/5/4 340/5/4
f 339/5/4 336/5/4 340/5/4
f 330/1/4 331/1/4 345/1/4
f 345/1/4 331/1/4 346/1/4
f 341/1/4 342/1/4 348/1/4
f 348/1/4 342/1/4 349/1/4
f 343/5/4 344/5/4 350/5/4
f 350/5/4 344/5/4 351/5/4
f 346/1/4 347/1/4 352/1/4
f 352/1/4 347/1/4 353/1/4
f 343/5/4 350/5/4 354/5/4
f 350/6/4 351/6/4 355/6/4
f 354/5/4 350/5/4 355/5/4
f 351/5/4 344/5/4 356/5/4
f 355/6/4 351/6/4 356/6/4
f 354/5/4 355/5/4 357/5/4
f 355/5/4 356/5/4 357/5/4
f 356/5/4 344/5/4 358/5/4
f 357/5/4 356/5/4 358/5/4
f 359/5/4 360/5/4 363/5/4
f 363/5/4 360/5/4 364/5/4
f 361/2/4 362/2/4 365/2/4
f 365/2/4 362/2/4 366/2/4
f 366/2/4 362/2/4 367/2/4
f 365/2/4 366/2/4 368/2/4
f 367/2/4 362/2/4 369/2/4
f 365/2/4 368/2/4 370/2/4
f 368/2/4 369/2/4 370/2/4
f 369/2/4 362/2/4 371/2/4
f 370/2/4 369/2/4 371/2/4
f 365/2/4 370/2/4 374/2/4
f 374/2/4 370/2/4 375/2/4
f 371/2/4 362/2/4 376/2/4
f 372/5/4 373/5/4 377/5/4
f 377/5/4 373/5/4 378/5/4
f 375/2/4 376/2/4 379/2/4
f 374/2/4 375/2/4 379/2/4
f 376/2/4 362/2/4 380/2/4
f 379/2/4 376/2/4 380/2/4
f 381/3/4 382/3/4 383/3/4
f 383/3/4 382/3/4 384/3/4
f 389/4/5 386/4/5 385/4/5
f 390/4/5 386/4/5 389/4/5
f 391/4/5 388/4/5 387/4/5
f 392/4/5 388/4/5 391/4/5
f 397/4/5 394/4/5 393/4/5
f 398/4/5 394/4/5 397/4/5
f 399/4/5 396/4/5 395/4/5
f 400/4/5 396/4/5 399/4/5
f 403/1/5 402/1/5 401/1/5
f 404/1/5 402/1/5 403/1/5
f 405/1/5 402/1/5 404/1/5
f 406/1/5 402/1/5 405/1/5
f 407/1/5 403/1/5 401/1/5
f 408/1/5 405/1/5 404/1/5
f 409/1/5 405/1/5 408/1/5
f 410/1/5 402/1/5 406/1/5
f 411/1/5 409/1/5 408/1/5
f 411/1/5 410/1/5 409/1/5
f 411/1/5 407/1/5 401/1/5
f 411/1/5 408/1/5 407/1/5
f 412/1/5 410/1/5 411/1/5
f 413/1/5 410/1/5 412/1/5
f 414/1/5 402/1/5 410/1/5
f 414/1/5 410/1/5 413/1/5
f 415/1/5 411/1/5 401/1/5
f 416/1/5 413/1/5 412/1/5
f 417/1/5 413/1/5 416/1/5
f 418/1/5 402/1/5 414/1/5
f 419/1/5 415/1/5 401/1/5
f 419/1/5 418/1/5 417/1/5
f 419/1/5 417/1/5 416/1/5
f 419/1/5 416/1/5 415/1/5
f 420/1/5 402/1/5 418/1/5
f 420/1/5 418/1/5 419/1/5
f 423/1/5 422/1/5 421/1/5
f 424/1/5 422/1/5 423/1/5
f 425/1/5 422/1/5 424/1/5
f 426/1/5 422/1/5 425/1/5
f 427/5/5 424/5/5 423/5/5
f 428/5/5 424/5/5 427/5/5
f 429/5/5 426/5/5 425/5/5
f 430/5/5 426/5/5 429/5/5
f 433/3/5 432/3/5 431/3/5
f 434/3/5 432/3/5 433/3/5
f 435/3/5 434/3/5 433/3/5
f 436/3/5 434/3/5 435/3/5
f 441/2/5 438/2/5 437/2/5
f 442/2/5 438/2/5 441/2/5
f 443/2/5 440/2/5 439/2/5
f 444/2/5 440/2/5 443/2/5
f 447/1/5 446/1/5 445/1/5
f 448/1/5 446/1/5 447/1/5
f 453/2/5 450/2/5 449/2/5
f 454/2/5 450/2/5 453/2/5
f 455/2/5 452/2/5 451/2/5
f 456/2/5 452/2/5 455/2/5
f 461/5/5 458/5/5 457/5/5
f 462/5/5 458/5/5 461/5/5
f 463/5/5 460/5/5 459/5/5
f 464/5/5 460/5/5 463/5/5
f 467/1/5 466/1/5 465/1/5
f 468/1/5 466/1/5 467/1/5
f 469/5/6 470/5/6 473/5/6
f 473/5/6 470/5/6 474/5/6
f 471/5/6 472/5/6 475/5/6
f 475/5/6 472/5/6 476/5/6
f 477/3/6 478/3/6 479/3/6
f 479/3/6 478/3/6 480/3/6
f 481/2/6 482/2/6 485/2/6
f 485/2/6 482/2/6 486/2/6
f 483/2/6 484/2/6 487/2/6
f 487/2/6 484/2/6 488/2/6
f 489/1/6 490/1/6 491/1/6
f 491/1/6 490/1/6 492/1/6
f 493/1/6 494/1/6 496/1/6
f 496/1/6 494/1/6 497/1/6
f 496/2/6 497/2/6 499/2/6
f 497/2/6 498/2/6 499/2/6
f 495/2/6 496/2/6 499/2/6
f 499/2/6 498/2/6 500/2/6
f 501/1/6 502/1/6 503/1/6
f 503/1/6 502/1/6 504/1/6
f 505/5/6 506/5/6 509/5/6
f 509/5/6 506/5/6 510/5/6
f 507/5/6 508/5/6 511/5/6
f 511/5/6 508/5/6 512/5/6
f 513/1/6 514/1/6 515/1/6
f 515/1/6 514/1/6 516/1/6
f 515/2/6 516/2/6 517/2/6
f 517/2/6 516/2/6 518/2/6
f 517/1/6 518/1/6 519/1/6
f 519/1/6 518/1/6 520/1/6
f 520/1/6 518/1/6 521/1/6
f 521/1/6 518/1/6 522/1/6
f 522/1/6 518/1/6 523/1/6
f 523/1/6 518/1/6 524/1/6
f 524/1/6 518/1/6 525/1/6
f 525/1/6 518/1/6 526/1/6
f 517/1/6 519/1/6 527/1/6
f 522/1/6 523/1/6 530/1/6
f 530/1/6 523/1/6 531/1/6
f 526/1/6 518/1/6 534/1/6
f 532/1/6 533/1/6 535/1/6
f 533/1/6 534/1/6 535/1/6
f 528/1/6 529/1/6 535/1/6
f 517/1/6 527/1/6 535/1/6
f 531/1/6 532/1/6 535/1/6
f 530/1/6 531/1/6 535/1/6
f 529/1/6 530/1/6 535/1/6
f 527/1/6 528/1/6 535/1/6
f 534/1/6 518/1/6 536/1/6
f 535/1/6 534/1/6 536/1/6
f 537/1/6 538/1/6 541/1/6
f 541/1/6 538/1/6 542/1/6
f 539/1/6 540/1/6 543/1/6
f 543/1/6 540/1/6 544/1/6
